<?xml version="1.0" encoding="UTF-8"?>
<svg xmlns="http://www.w3.org/2000/svg" xmlns:xlink="http://www.w3.org/1999/xlink" width="31px" height="32px" viewBox="0 0 31 32" version="1.1">
<g id="surface1">
<path style=" stroke:none;fill-rule:nonzero;fill:rgb(0%,0%,0%);fill-opacity:1;" d="M 17.265625 2.949219 C 17.128906 3.058594 16.902344 3.195312 16.765625 3.265625 C 16.621094 3.328125 16.332031 3.519531 16.113281 3.691406 C 15.742188 3.988281 15.492188 4.167969 15.257812 4.320312 C 15.054688 4.453125 14.488281 5.089844 14.285156 5.414062 C 14.222656 5.515625 14.136719 5.636719 14.09375 5.683594 C 14.050781 5.726562 13.992188 5.835938 13.976562 5.925781 C 13.957031 6.007812 13.917969 6.078125 13.894531 6.078125 C 13.871094 6.078125 13.78125 6.195312 13.707031 6.34375 C 13.566406 6.597656 13.441406 6.664062 13.570312 6.414062 C 13.652344 6.253906 13.660156 6.207031 13.585938 6.207031 C 13.554688 6.207031 13.484375 6.308594 13.421875 6.4375 C 13.34375 6.617188 13.304688 6.648438 13.253906 6.585938 C 13.210938 6.507812 13.207031 6.515625 13.21875 6.59375 C 13.222656 6.644531 13.179688 6.765625 13.125 6.855469 C 12.984375 7.070312 12.957031 7.539062 13.082031 7.617188 C 13.164062 7.667969 13.132812 7.699219 13.019531 7.691406 C 13 7.691406 12.921875 7.742188 12.835938 7.808594 C 12.699219 7.910156 12.683594 7.972656 12.683594 8.410156 C 12.679688 8.921875 12.777344 9.171875 12.902344 8.941406 C 12.9375 8.882812 12.988281 8.84375 13.015625 8.863281 C 13.070312 8.894531 13.207031 8.421875 13.207031 8.203125 C 13.207031 8.058594 13.660156 7.085938 13.832031 6.855469 C 13.902344 6.765625 14.074219 6.558594 14.214844 6.40625 C 14.359375 6.246094 14.441406 6.144531 14.390625 6.175781 C 14.339844 6.203125 14.390625 6.09375 14.5 5.933594 C 14.605469 5.765625 14.742188 5.605469 14.804688 5.574219 C 14.863281 5.542969 15.023438 5.394531 15.160156 5.253906 C 15.296875 5.113281 15.425781 5 15.449219 4.992188 C 15.523438 4.992188 16.523438 4.292969 16.796875 4.050781 C 17.261719 3.640625 17.386719 3.488281 17.453125 3.230469 C 17.488281 3.089844 17.535156 2.738281 17.515625 2.753906 C 17.515625 2.753906 17.402344 2.839844 17.265625 2.949219 Z M 17.265625 2.949219 "/>
<path style=" stroke:none;fill-rule:nonzero;fill:rgb(0%,0%,0%);fill-opacity:1;" d="M 15.6875 3.660156 C 14.917969 3.878906 14.273438 4.101562 14.171875 4.179688 C 14.019531 4.292969 13.988281 4.488281 14.125 4.433594 C 14.214844 4.410156 14.214844 4.414062 14.125 4.492188 C 14.0625 4.550781 14.003906 4.71875 13.988281 4.929688 C 13.976562 5.113281 13.925781 5.300781 13.894531 5.332031 C 13.84375 5.382812 13.824219 5.375 13.824219 5.304688 C 13.824219 5.230469 13.8125 5.230469 13.765625 5.3125 C 13.726562 5.371094 13.734375 5.433594 13.777344 5.492188 C 13.820312 5.542969 13.824219 5.59375 13.789062 5.621094 C 13.757812 5.644531 13.726562 5.691406 13.71875 5.726562 C 13.714844 5.761719 13.691406 5.847656 13.664062 5.921875 C 13.621094 6.046875 13.621094 6.046875 13.75 5.925781 C 13.824219 5.855469 13.988281 5.65625 14.097656 5.476562 C 14.453125 4.933594 15.195312 4.191406 15.835938 3.75 C 16.089844 3.578125 16.050781 3.550781 15.6875 3.660156 Z M 15.6875 3.660156 "/>
<path style=" stroke:none;fill-rule:nonzero;fill:rgb(0%,0%,0%);fill-opacity:1;" d="M 22.257812 8.820312 C 21.949219 8.859375 21.84375 8.894531 21.6875 9.042969 C 21.550781 9.171875 21.433594 9.203125 20.960938 9.242188 C 20.652344 9.265625 20.375 9.273438 20.335938 9.246094 C 20.304688 9.230469 20.273438 9.242188 20.273438 9.273438 C 20.273438 9.3125 20.238281 9.34375 20.1875 9.34375 C 20.125 9.34375 20.074219 9.472656 20.027344 9.707031 C 19.988281 9.914062 19.933594 10.164062 19.894531 10.265625 C 19.863281 10.367188 19.839844 10.46875 19.839844 10.503906 C 19.839844 10.558594 20.324219 10.507812 20.464844 10.425781 C 20.527344 10.394531 20.632812 10.367188 20.707031 10.367188 C 20.78125 10.367188 20.929688 10.328125 21.035156 10.285156 C 21.878906 9.921875 22.730469 9.726562 23.496094 9.734375 C 24.128906 9.734375 24.328125 9.765625 25.234375 9.976562 C 25.902344 10.136719 27.503906 10.234375 27.6875 10.125 C 27.78125 10.074219 27.75 10.054688 27.527344 10.023438 C 26.976562 9.953125 26.945312 9.9375 27.25 9.925781 L 27.558594 9.921875 L 27.125 9.753906 C 26.890625 9.664062 26.621094 9.582031 26.542969 9.574219 C 26.457031 9.5625 26.355469 9.503906 26.320312 9.445312 C 26.277344 9.390625 26.1875 9.34375 26.125 9.34375 C 26.058594 9.34375 25.941406 9.300781 25.867188 9.242188 C 25.792969 9.191406 25.699219 9.164062 25.65625 9.191406 C 25.613281 9.214844 25.605469 9.210938 25.628906 9.164062 C 25.675781 9.089844 25.5625 9.054688 25.363281 9.082031 C 25.320312 9.09375 25.296875 9.070312 25.316406 9.042969 C 25.332031 9.011719 25.289062 8.984375 25.214844 8.980469 C 25.140625 8.980469 25.117188 8.984375 25.160156 9.003906 C 25.234375 9.035156 24.667969 9.460938 24.519531 9.484375 C 24.167969 9.535156 24.085938 9.511719 23.828125 9.246094 C 23.679688 9.09375 23.546875 9.011719 23.527344 9.050781 C 23.511719 9.089844 23.511719 9.035156 23.523438 8.929688 C 23.546875 8.75 23.542969 8.75 23.460938 8.863281 C 23.410156 8.929688 23.375 8.945312 23.375 8.902344 C 23.375 8.851562 23.34375 8.84375 23.269531 8.882812 C 23.199219 8.929688 23.125 8.921875 23.03125 8.859375 C 22.921875 8.78125 22.671875 8.769531 22.257812 8.820312 Z M 23.796875 9.515625 C 23.664062 9.53125 23.453125 9.53125 23.332031 9.515625 C 23.199219 9.503906 23.304688 9.492188 23.558594 9.492188 C 23.8125 9.492188 23.917969 9.503906 23.796875 9.515625 Z M 22.957031 9.582031 C 22.878906 9.59375 22.753906 9.59375 22.679688 9.582031 C 22.597656 9.566406 22.660156 9.554688 22.816406 9.554688 C 22.972656 9.554688 23.03125 9.566406 22.957031 9.582031 Z M 22.429688 9.644531 C 22.371094 9.65625 22.269531 9.65625 22.214844 9.644531 C 22.152344 9.625 22.203125 9.613281 22.320312 9.613281 C 22.4375 9.613281 22.488281 9.625 22.429688 9.644531 Z M 22.429688 9.644531 "/>
<path style=" stroke:none;fill-rule:nonzero;fill:rgb(0%,0%,0%);fill-opacity:1;" d="M 6.617188 10.445312 C 6.554688 10.558594 6.449219 10.753906 6.375 10.875 C 6.300781 10.996094 6.273438 11.070312 6.316406 11.046875 C 6.378906 11 6.386719 11.019531 6.324219 11.128906 C 6.285156 11.207031 6.230469 11.25 6.199219 11.230469 C 6.175781 11.210938 6.164062 11.265625 6.1875 11.339844 C 6.21875 11.476562 6.226562 11.476562 6.269531 11.355469 C 6.359375 11.109375 6.332031 11.429688 6.230469 11.710938 C 6.175781 11.871094 6.136719 12.203125 6.136719 12.511719 C 6.136719 13.132812 6.027344 13.761719 5.910156 13.804688 C 5.863281 13.824219 5.828125 13.921875 5.828125 14.015625 C 5.828125 14.117188 5.796875 14.277344 5.761719 14.378906 C 5.519531 15 5.585938 15.566406 6.019531 16.5 C 6.1875 16.863281 6.324219 17.203125 6.324219 17.253906 C 6.324219 17.304688 6.355469 17.34375 6.386719 17.34375 C 6.421875 17.34375 6.449219 17.382812 6.449219 17.425781 C 6.449219 17.53125 6.757812 17.875 7.316406 18.394531 C 7.773438 18.824219 7.738281 18.804688 7.023438 18.253906 C 6.378906 17.746094 6.21875 17.542969 5.847656 16.734375 C 5.605469 16.210938 5.511719 16.0625 5.363281 16 C 5.265625 15.949219 5.160156 15.902344 5.132812 15.886719 C 5.101562 15.871094 5.085938 15.9375 5.085938 16.03125 C 5.085938 16.570312 4.464844 16.964844 3.960938 16.742188 C 3.894531 16.710938 3.84375 16.734375 3.820312 16.804688 C 3.789062 16.894531 3.792969 16.902344 3.867188 16.839844 C 3.9375 16.78125 3.960938 16.804688 3.992188 16.972656 C 4.042969 17.234375 4.828125 18.855469 4.949219 18.9375 C 4.972656 18.964844 5.066406 19.078125 5.144531 19.199219 C 5.492188 19.710938 6.304688 20.59375 6.664062 20.851562 C 6.800781 20.945312 6.925781 21.042969 6.945312 21.0625 C 6.960938 21.082031 7.140625 21.214844 7.347656 21.355469 C 7.960938 21.777344 8.933594 22.1875 9.640625 22.308594 C 9.777344 22.335938 9.9375 22.378906 10 22.414062 C 10.328125 22.585938 11.6875 22.597656 12.4375 22.433594 C 12.5625 22.40625 12.585938 22.414062 12.523438 22.453125 C 12.246094 22.636719 10.339844 22.828125 9.964844 22.714844 C 9.851562 22.679688 9.554688 22.609375 9.300781 22.554688 C 8.332031 22.347656 7.253906 21.867188 6.417969 21.28125 L 5.988281 20.972656 L 5.363281 21.074219 C 5.023438 21.132812 4.59375 21.195312 4.421875 21.222656 C 4.234375 21.246094 4.09375 21.300781 4.09375 21.335938 C 4.09375 21.472656 4.617188 22.304688 4.699219 22.296875 C 4.738281 22.292969 4.929688 22.285156 5.113281 22.285156 C 5.429688 22.273438 5.457031 22.257812 5.550781 22.0625 C 5.671875 21.785156 5.933594 21.632812 6.285156 21.632812 C 6.527344 21.632812 6.609375 21.671875 6.808594 21.847656 C 7.023438 22.0625 7.035156 22.09375 7.035156 22.457031 C 7.035156 22.804688 7.019531 22.867188 6.84375 23.046875 C 6.695312 23.199219 6.578125 23.25 6.316406 23.289062 L 5.984375 23.328125 L 6.347656 23.539062 C 6.554688 23.648438 6.738281 23.742188 6.769531 23.742188 C 6.800781 23.742188 6.871094 23.769531 6.929688 23.800781 C 7.457031 24.101562 8.363281 24.453125 9.089844 24.640625 C 9.394531 24.71875 9.671875 24.804688 9.714844 24.84375 C 9.753906 24.875 9.820312 24.894531 9.871094 24.890625 C 9.914062 24.882812 9.996094 24.894531 10.042969 24.914062 C 10.09375 24.941406 10.390625 24.964844 10.695312 24.980469 C 11.226562 25 11.222656 25 10.539062 25.011719 C 9.480469 25.03125 8.71875 24.894531 7.632812 24.5 C 7.007812 24.269531 6.664062 24.101562 6.207031 23.78125 C 5.839844 23.527344 5.691406 23.527344 5.984375 23.777344 C 6.441406 24.167969 8.363281 25.023438 8.773438 25.023438 C 8.976562 25.023438 8.910156 25.160156 8.59375 25.375 C 8.265625 25.601562 7.625 26.253906 7.503906 26.488281 C 7.453125 26.597656 7.496094 26.625 7.953125 26.738281 C 8.234375 26.808594 8.777344 26.976562 9.167969 27.097656 C 10.347656 27.488281 11.796875 27.621094 12.828125 27.457031 C 13.042969 27.417969 13.238281 27.398438 13.25 27.417969 C 13.269531 27.4375 13.21875 27.710938 13.144531 28.039062 C 12.996094 28.691406 13.007812 28.820312 13.21875 28.769531 C 13.300781 28.75 13.644531 28.773438 13.992188 28.832031 C 14.636719 28.929688 15.46875 28.960938 15.648438 28.890625 C 15.730469 28.859375 15.71875 28.8125 15.582031 28.601562 C 15.449219 28.398438 15.425781 28.300781 15.457031 28.0625 C 15.488281 27.742188 15.613281 27.566406 15.902344 27.40625 C 16.003906 27.355469 16.195312 27.21875 16.320312 27.117188 C 16.738281 26.765625 17.335938 26.910156 17.546875 27.417969 C 17.671875 27.707031 17.65625 27.890625 17.488281 28.152344 C 17.398438 28.300781 17.421875 28.292969 17.792969 28.082031 C 18.011719 27.949219 18.402344 27.691406 18.660156 27.507812 C 18.917969 27.320312 19.152344 27.167969 19.183594 27.167969 C 19.246094 27.167969 19.40625 27.671875 19.40625 27.886719 C 19.40625 27.960938 19.4375 28.171875 19.472656 28.351562 C 19.535156 28.640625 19.554688 28.671875 19.710938 28.671875 C 19.964844 28.671875 20.726562 28.382812 21.191406 28.121094 C 21.890625 27.71875 22.742188 26.714844 23.125 25.832031 C 23.242188 25.566406 23.347656 25.40625 23.410156 25.40625 C 23.484375 25.40625 23.472656 25.363281 23.347656 25.210938 C 23.007812 24.792969 23.199219 24.121094 23.722656 23.898438 C 23.875 23.832031 23.925781 23.761719 23.964844 23.578125 C 23.988281 23.429688 24.085938 23.25 24.210938 23.125 C 24.390625 22.9375 24.460938 22.910156 24.730469 22.910156 C 25.003906 22.910156 25.078125 22.945312 25.285156 23.128906 C 25.496094 23.335938 25.511719 23.378906 25.511719 23.691406 L 25.511719 24.039062 L 25.773438 24.039062 L 26.035156 24.03125 L 26.097656 23.640625 C 26.132812 23.429688 26.164062 22.828125 26.164062 22.316406 C 26.164062 21.605469 26.183594 21.375 26.246094 21.375 C 26.355469 21.375 27.570312 21.875 27.746094 21.992188 C 27.898438 22.09375 27.898438 22.09375 27.898438 21.902344 C 27.898438 21.796875 27.917969 21.621094 27.9375 21.503906 L 27.980469 21.300781 L 27.789062 21.402344 C 27.386719 21.621094 26.859375 21.460938 26.648438 21.050781 C 26.503906 20.78125 26.511719 20.644531 26.652344 20.308594 C 26.863281 19.832031 27.460938 19.679688 27.824219 20 C 27.929688 20.089844 28.023438 20.160156 28.035156 20.160156 C 28.046875 20.160156 28.042969 19.921875 28.019531 19.628906 C 27.9375 18.738281 27.460938 17.484375 26.871094 16.621094 C 26.753906 16.453125 26.660156 16.300781 26.660156 16.273438 C 26.660156 16.257812 26.585938 16.132812 26.492188 16.007812 L 26.332031 15.777344 L 26.59375 16.03125 C 26.796875 16.230469 26.863281 16.269531 26.902344 16.199219 C 26.933594 16.148438 26.945312 16.070312 26.925781 16.027344 C 26.90625 15.980469 26.953125 15.886719 27.019531 15.808594 C 27.148438 15.660156 27.316406 15.671875 27.683594 15.839844 C 27.789062 15.886719 27.960938 15.960938 28.074219 16 C 28.179688 16.042969 28.273438 16.121094 28.273438 16.167969 C 28.273438 16.261719 28.558594 16.402344 28.875 16.46875 L 29.066406 16.503906 L 28.71875 15.742188 C 28.390625 15.035156 28.351562 14.976562 28.191406 14.976562 C 27.539062 14.976562 27.136719 14.265625 27.464844 13.707031 C 27.609375 13.464844 27.582031 13.382812 27.269531 13.082031 C 26.757812 12.589844 26.203125 12.289062 24.984375 11.847656 C 23.886719 11.449219 23.210938 11.28125 22.511719 11.230469 L 21.980469 11.195312 L 22.320312 11.417969 C 22.613281 11.609375 22.699219 11.636719 22.902344 11.601562 C 23.167969 11.558594 23.175781 11.667969 22.910156 11.738281 C 22.777344 11.769531 22.296875 12.050781 21.644531 12.46875 C 21.496094 12.558594 21.507812 12.5625 22.015625 12.71875 C 22.65625 12.902344 23.648438 13.390625 24.253906 13.8125 C 24.835938 14.222656 25.6875 14.988281 26.039062 15.429688 L 26.320312 15.777344 L 25.914062 15.40625 C 25.042969 14.597656 23.917969 13.953125 22.542969 13.464844 C 22.085938 13.304688 21.710938 13.152344 21.730469 13.125 C 21.742188 13.101562 21.699219 12.984375 21.636719 12.875 C 21.488281 12.628906 21.308594 12.613281 20.78125 12.792969 C 20.589844 12.859375 20.082031 12.984375 19.652344 13.074219 C 19.027344 13.203125 18.742188 13.230469 18.164062 13.210938 C 17.339844 13.183594 16.859375 13.140625 16.554688 13.054688 C 16.4375 13.023438 16.125 12.953125 15.871094 12.894531 C 15.617188 12.839844 15.339844 12.761719 15.253906 12.734375 C 15.164062 12.703125 14.890625 12.621094 14.644531 12.542969 C 14.351562 12.453125 14.210938 12.382812 14.234375 12.339844 C 14.265625 12.289062 14.242188 12.28125 14.171875 12.308594 C 14.117188 12.332031 14.082031 12.328125 14.097656 12.292969 C 14.117188 12.269531 13.925781 12.132812 13.675781 12.007812 C 13.324219 11.828125 13.125 11.667969 12.828125 11.328125 C 12.609375 11.085938 12.425781 10.894531 12.417969 10.90625 C 12.320312 11 12.847656 11.726562 13.484375 12.378906 C 13.839844 12.734375 14.441406 13.183594 14.570312 13.183594 C 14.632812 13.183594 14.695312 13.210938 14.707031 13.234375 C 14.738281 13.332031 15.679688 13.632812 16.113281 13.695312 C 16.882812 13.804688 17.390625 13.886719 17.515625 13.933594 C 17.582031 13.953125 17.804688 13.964844 18.015625 13.964844 C 18.371094 13.957031 18.425781 13.976562 18.753906 14.222656 C 19.070312 14.453125 19.183594 14.496094 19.679688 14.574219 C 20.195312 14.648438 20.707031 14.789062 21.265625 15 C 21.917969 15.257812 22.175781 15.28125 21.910156 15.070312 C 21.847656 15.019531 22.027344 15.078125 22.308594 15.199219 C 22.59375 15.320312 22.839844 15.425781 22.851562 15.425781 C 22.867188 15.425781 22.847656 15.347656 22.816406 15.257812 C 22.777344 15.167969 22.777344 15.109375 22.804688 15.128906 C 22.835938 15.148438 22.851562 15.066406 22.851562 14.949219 C 22.847656 14.835938 22.816406 14.746094 22.785156 14.757812 C 22.699219 14.796875 22.550781 14.417969 22.585938 14.273438 C 22.605469 14.203125 22.582031 14.136719 22.523438 14.117188 C 22.476562 14.09375 22.457031 14.046875 22.480469 14.003906 C 22.519531 13.9375 22.507812 13.9375 22.429688 14.003906 C 22.351562 14.074219 22.332031 14.066406 22.34375 13.972656 C 22.351562 13.816406 21.824219 13.546875 21.203125 13.382812 C 20.949219 13.3125 20.808594 13.253906 20.894531 13.253906 C 21.136719 13.246094 21.753906 13.425781 22.132812 13.613281 C 22.574219 13.835938 22.914062 14.164062 23.515625 14.945312 C 23.933594 15.488281 24.050781 15.601562 24.324219 15.71875 C 24.503906 15.789062 24.855469 15.957031 25.109375 16.082031 C 25.363281 16.21875 25.625 16.320312 25.6875 16.320312 C 25.75 16.320312 25.78125 16.34375 25.761719 16.382812 C 25.648438 16.570312 24.773438 16.382812 24.292969 16.070312 L 24.007812 15.878906 L 23.546875 16.050781 C 23.167969 16.191406 22.988281 16.21875 22.445312 16.222656 C 21.527344 16.222656 21.066406 16.058594 19.996094 15.355469 L 19.621094 15.109375 L 18.902344 15.109375 C 18.160156 15.105469 17.335938 14.988281 16.820312 14.808594 C 16.417969 14.675781 15.191406 14.035156 15.027344 13.882812 C 14.847656 13.707031 14.75 13.722656 14.835938 13.914062 C 14.878906 13.996094 14.929688 14.054688 14.953125 14.042969 C 14.972656 14.027344 15.011719 14.042969 15.035156 14.078125 C 15.101562 14.203125 14.949219 14.144531 14.679688 13.957031 C 14.53125 13.855469 14.304688 13.636719 14.171875 13.476562 C 14.050781 13.320312 13.914062 13.195312 13.882812 13.203125 C 13.820312 13.214844 12.894531 12.230469 12.894531 12.140625 C 12.894531 12.113281 12.925781 12.109375 12.957031 12.128906 C 12.996094 12.148438 13.019531 12.140625 13.019531 12.101562 C 13.019531 12.070312 12.984375 12.011719 12.933594 11.988281 C 12.835938 11.929688 12.339844 11.25 12.1875 10.96875 C 12.101562 10.804688 12.097656 10.796875 12.089844 10.925781 C 12.089844 11.058594 12.226562 11.546875 12.339844 11.808594 C 12.367188 11.878906 12.40625 11.992188 12.425781 12.070312 C 12.46875 12.210938 12.894531 12.722656 12.894531 12.632812 C 12.894531 12.601562 12.957031 12.664062 13.027344 12.78125 C 13.09375 12.894531 13.207031 13.003906 13.273438 13.023438 C 13.335938 13.050781 13.390625 13.09375 13.390625 13.125 C 13.390625 13.160156 13.410156 13.175781 13.441406 13.164062 C 13.464844 13.160156 13.492188 13.171875 13.503906 13.195312 C 13.515625 13.222656 13.601562 13.332031 13.707031 13.445312 C 13.808594 13.554688 13.886719 13.671875 13.886719 13.703125 C 13.886719 13.726562 13.929688 13.734375 13.992188 13.714844 C 14.066406 13.683594 14.082031 13.695312 14.042969 13.761719 C 14.003906 13.816406 14.019531 13.832031 14.066406 13.792969 C 14.109375 13.765625 14.191406 13.796875 14.265625 13.875 C 14.394531 14.023438 14.910156 14.398438 14.980469 14.398438 C 15.003906 14.398438 15.117188 14.46875 15.226562 14.558594 C 15.339844 14.648438 15.457031 14.71875 15.492188 14.71875 C 15.53125 14.71875 15.5625 14.738281 15.5625 14.769531 C 15.5625 14.796875 15.65625 14.855469 15.765625 14.90625 C 15.871094 14.957031 16.050781 15.066406 16.152344 15.15625 C 16.257812 15.246094 16.503906 15.390625 16.710938 15.488281 C 17.144531 15.6875 17.570312 16.140625 17.632812 16.460938 C 17.65625 16.582031 17.625 16.863281 17.566406 17.140625 C 17.464844 17.59375 17.464844 17.605469 17.601562 18.113281 C 17.757812 18.65625 17.78125 19.28125 17.671875 19.726562 C 17.546875 20.191406 17.097656 20.984375 16.746094 21.363281 C 15.773438 22.394531 14.953125 22.769531 13.800781 22.707031 C 13.148438 22.667969 12.847656 22.566406 13.207031 22.503906 C 13.324219 22.484375 13.535156 22.457031 13.664062 22.453125 C 13.902344 22.433594 13.917969 22.417969 14.128906 21.976562 C 14.289062 21.65625 14.539062 21.324219 14.960938 20.863281 C 15.296875 20.503906 15.554688 20.191406 15.542969 20.179688 C 15.480469 20.121094 15.195312 20.242188 15.027344 20.402344 C 14.84375 20.589844 14.445312 20.824219 14.445312 20.761719 C 14.445312 20.734375 14.410156 20.75 14.367188 20.789062 C 14.328125 20.824219 14.054688 20.902344 13.777344 20.960938 C 13.347656 21.050781 13.175781 21.054688 12.816406 21.003906 C 12.566406 20.964844 12.363281 20.902344 12.351562 20.863281 C 12.339844 20.832031 12.308594 20.8125 12.28125 20.824219 C 12.257812 20.84375 12.089844 20.800781 11.902344 20.730469 L 11.5625 20.609375 L 11.828125 20.644531 C 12.070312 20.679688 12.121094 20.664062 12.289062 20.503906 C 12.386719 20.402344 12.5 20.269531 12.53125 20.203125 C 12.585938 20.109375 12.574219 20.097656 12.449219 20.128906 C 12.066406 20.230469 10.683594 19.757812 10.3125 19.398438 C 10.234375 19.320312 10.15625 19.265625 10.128906 19.265625 C 10.070312 19.265625 9.492188 18.808594 9.15625 18.496094 C 9.003906 18.347656 8.71875 17.992188 8.53125 17.703125 C 7.863281 16.671875 7.582031 15.78125 7.527344 14.464844 C 7.488281 13.703125 7.476562 13.644531 7.277344 13.292969 C 7.160156 13.089844 7.066406 12.875 7.066406 12.832031 C 7.066406 12.78125 7.042969 12.722656 7.007812 12.703125 C 6.976562 12.683594 6.945312 12.550781 6.945312 12.402344 C 6.945312 12.199219 6.960938 12.152344 7.035156 12.1875 C 7.085938 12.203125 7.128906 12.191406 7.128906 12.160156 C 7.128906 12.121094 7.105469 12.097656 7.074219 12.097656 C 6.992188 12.097656 6.929688 11.890625 6.992188 11.847656 C 7.023438 11.828125 7.082031 11.742188 7.125 11.667969 C 7.179688 11.550781 7.160156 11.441406 7.007812 11.027344 C 6.90625 10.757812 6.820312 10.464844 6.820312 10.386719 C 6.820312 10.183594 6.738281 10.207031 6.617188 10.445312 Z M 6.660156 11.71875 C 6.601562 12.082031 6.535156 12.699219 6.511719 13.089844 L 6.453125 13.792969 L 6.480469 12.992188 C 6.496094 12.292969 6.671875 10.964844 6.734375 11.027344 C 6.746094 11.039062 6.714844 11.355469 6.660156 11.71875 Z M 7.128906 11.519531 C 7.128906 11.550781 7.105469 11.585938 7.066406 11.585938 C 7.035156 11.585938 7.007812 11.550781 7.007812 11.519531 C 7.007812 11.480469 7.035156 11.457031 7.066406 11.457031 C 7.105469 11.457031 7.128906 11.480469 7.128906 11.519531 Z M 15.785156 14.4375 C 15.839844 14.417969 15.859375 14.433594 15.839844 14.464844 C 15.824219 14.503906 15.835938 14.527344 15.871094 14.527344 C 15.914062 14.527344 16.027344 14.585938 16.125 14.664062 C 16.226562 14.734375 16.335938 14.769531 16.375 14.746094 C 16.421875 14.71875 16.429688 14.726562 16.40625 14.769531 C 16.375 14.824219 16.40625 14.847656 16.484375 14.847656 C 16.558594 14.847656 16.617188 14.875 16.617188 14.910156 C 16.617188 15.015625 15.746094 14.644531 15.257812 14.324219 C 14.996094 14.15625 15.140625 14.136719 15.414062 14.304688 C 15.566406 14.398438 15.734375 14.457031 15.785156 14.4375 Z M 18.945312 16.28125 C 19.097656 16.460938 19.292969 16.761719 19.394531 16.953125 C 19.585938 17.332031 19.839844 18.324219 19.839844 18.707031 C 19.839844 18.835938 19.871094 18.957031 19.902344 18.976562 C 19.9375 18.996094 19.964844 18.980469 19.964844 18.949219 C 19.964844 18.816406 20.347656 18.335938 20.433594 18.355469 C 20.539062 18.375 20.546875 18.207031 20.453125 17.925781 C 20.367188 17.671875 20.429688 17.585938 20.527344 17.816406 C 20.585938 17.933594 20.628906 17.964844 20.675781 17.921875 C 20.71875 17.886719 20.769531 17.882812 20.792969 17.90625 C 20.820312 17.933594 20.820312 17.863281 20.792969 17.761719 C 20.714844 17.394531 20.410156 16.859375 20.09375 16.511719 C 19.921875 16.328125 19.789062 16.160156 19.804688 16.148438 C 19.816406 16.132812 19.976562 16.292969 20.164062 16.503906 C 20.765625 17.171875 21.019531 17.792969 21.019531 18.585938 C 21.019531 19.128906 20.949219 19.410156 20.671875 19.992188 L 20.453125 20.433594 L 20.660156 20.652344 C 20.875 20.890625 20.84375 20.933594 20.601562 20.734375 C 20.402344 20.574219 20.136719 20.03125 19.988281 19.488281 C 19.871094 19.058594 19.777344 18.949219 19.777344 19.230469 C 19.777344 19.316406 19.722656 19.539062 19.660156 19.726562 C 19.59375 19.910156 19.523438 20.152344 19.5 20.269531 C 19.480469 20.378906 19.367188 20.59375 19.257812 20.75 C 19.144531 20.894531 18.941406 21.183594 18.796875 21.375 C 18.660156 21.566406 18.382812 21.921875 18.183594 22.152344 C 17.984375 22.378906 17.792969 22.628906 17.75 22.695312 C 17.714844 22.757812 17.675781 22.785156 17.675781 22.746094 C 17.671875 22.707031 17.769531 22.539062 17.898438 22.375 C 18.148438 22.042969 18.152344 22.132812 17.832031 21.214844 C 17.671875 20.761719 17.613281 20.078125 17.726562 20 C 17.757812 19.980469 17.804688 19.871094 17.832031 19.761719 C 17.851562 19.648438 17.910156 19.488281 17.960938 19.410156 C 18.054688 19.269531 18.0625 19.269531 18.242188 19.378906 C 18.339844 19.4375 18.539062 19.617188 18.679688 19.777344 L 18.941406 20.058594 L 18.996094 19.789062 C 19.082031 19.359375 19.183594 19.460938 19.140625 19.941406 C 19.113281 20.179688 19.113281 20.351562 19.132812 20.339844 C 19.171875 20.292969 19.332031 19.328125 19.382812 18.847656 C 19.398438 18.667969 19.417969 18.496094 19.429688 18.464844 C 19.46875 18.363281 19.367188 17.792969 19.214844 17.214844 C 19.082031 16.71875 19.050781 16.660156 18.625 16.199219 C 18.371094 15.929688 18.164062 15.707031 18.164062 15.691406 C 18.164062 15.601562 18.730469 16.03125 18.945312 16.28125 Z M 23.832031 17.402344 C 24.144531 17.863281 24.253906 18.277344 24.285156 19.070312 C 24.304688 19.636719 24.296875 19.78125 24.242188 19.710938 C 24.1875 19.636719 24.179688 19.71875 24.199219 20.070312 C 24.21875 20.390625 24.273438 20.621094 24.390625 20.863281 C 24.484375 21.050781 24.539062 21.214844 24.527344 21.234375 C 24.507812 21.253906 24.476562 21.214844 24.453125 21.160156 C 24.402344 21.023438 24.160156 20.894531 23.863281 20.839844 C 23.734375 20.8125 23.566406 20.71875 23.453125 20.589844 C 23.238281 20.359375 23.101562 20.101562 23.152344 20.042969 C 23.167969 20.027344 23.1875 20.050781 23.1875 20.097656 C 23.1875 20.140625 23.207031 20.160156 23.226562 20.140625 C 23.25 20.121094 23.324219 20.128906 23.386719 20.167969 C 23.585938 20.273438 23.945312 20.289062 23.90625 20.1875 C 23.886719 20.132812 23.902344 20.097656 23.9375 20.097656 C 23.980469 20.097656 23.992188 19.941406 23.980469 19.679688 C 23.964844 19.230469 23.992188 19.160156 24.097656 19.4375 C 24.15625 19.589844 24.167969 19.53125 24.171875 19.066406 C 24.1875 18.1875 23.976562 17.644531 23.378906 17 L 23.09375 16.683594 L 23.378906 16.921875 C 23.542969 17.050781 23.746094 17.265625 23.832031 17.402344 Z M 7.578125 18.867188 C 7.824219 19.085938 8.320312 19.46875 8.671875 19.710938 C 9.035156 19.960938 9.300781 20.160156 9.28125 20.160156 C 9.175781 20.160156 8.433594 19.738281 8.089844 19.488281 C 7.730469 19.21875 6.808594 18.296875 7.019531 18.40625 C 7.074219 18.4375 7.320312 18.644531 7.578125 18.867188 Z M 21.105469 23.648438 C 21.078125 23.699219 21.0625 23.742188 21.050781 23.742188 C 21.035156 23.742188 21.019531 23.699219 20.992188 23.648438 C 20.972656 23.589844 20.992188 23.550781 21.050781 23.550781 C 21.105469 23.550781 21.125 23.589844 21.105469 23.648438 Z M 13.082031 24.640625 C 13.988281 24.664062 14.054688 24.679688 13.671875 24.71875 C 12.757812 24.820312 11.976562 24.75 11.867188 24.5625 C 11.835938 24.511719 11.855469 24.503906 11.941406 24.542969 C 12.003906 24.574219 12.519531 24.621094 13.082031 24.640625 Z M 14.476562 24.574219 C 14.410156 24.609375 14.308594 24.632812 14.261719 24.632812 C 14.203125 24.632812 14.210938 24.609375 14.289062 24.574219 C 14.359375 24.542969 14.457031 24.519531 14.507812 24.519531 C 14.5625 24.519531 14.558594 24.542969 14.476562 24.574219 Z M 11.796875 25.003906 C 11.71875 25.019531 11.59375 25.019531 11.519531 25.003906 C 11.4375 24.992188 11.5 24.980469 11.65625 24.980469 C 11.8125 24.980469 11.871094 24.992188 11.796875 25.003906 Z M 17.476562 25.703125 C 17.433594 25.761719 17.21875 25.945312 16.996094 26.117188 C 16.679688 26.363281 16.574219 26.414062 16.511719 26.355469 C 16.441406 26.296875 16.460938 26.257812 16.628906 26.15625 C 16.738281 26.085938 16.976562 25.933594 17.144531 25.816406 C 17.484375 25.585938 17.609375 25.542969 17.476562 25.703125 Z M 16.523438 26.753906 C 16.472656 26.835938 16.566406 26.835938 16.664062 26.753906 C 16.714844 26.714844 16.714844 26.71875 16.664062 26.777344 C 16.621094 26.828125 16.503906 26.894531 16.398438 26.910156 L 16.214844 26.949219 L 16.363281 26.824219 C 16.515625 26.675781 16.585938 26.648438 16.523438 26.753906 Z M 16.523438 26.753906 "/>
<path style=" stroke:none;fill-rule:nonzero;fill:rgb(0%,0%,0%);fill-opacity:1;" d="M 13.824219 11.160156 C 13.824219 11.199219 14.378906 11.457031 14.472656 11.457031 C 14.550781 11.457031 14.160156 11.238281 13.96875 11.175781 C 13.886719 11.148438 13.824219 11.140625 13.824219 11.160156 Z M 13.824219 11.160156 "/>
<path style=" stroke:none;fill-rule:nonzero;fill:rgb(0%,0%,0%);fill-opacity:1;" d="M 14.136719 11.566406 C 14.136719 11.589844 14.203125 11.648438 14.289062 11.691406 C 14.378906 11.730469 14.433594 11.738281 14.410156 11.707031 C 14.359375 11.621094 14.136719 11.507812 14.136719 11.566406 Z M 14.136719 11.566406 "/>
<path style=" stroke:none;fill-rule:nonzero;fill:rgb(0%,0%,0%);fill-opacity:1;" d="M 13.082031 12.273438 C 13.082031 12.308594 13.125 12.371094 13.175781 12.414062 C 13.222656 12.460938 13.269531 12.46875 13.269531 12.429688 C 13.269531 12.398438 13.222656 12.332031 13.175781 12.289062 C 13.125 12.242188 13.082031 12.238281 13.082031 12.273438 Z M 13.082031 12.273438 "/>
<path style=" stroke:none;fill-rule:nonzero;fill:rgb(0%,0%,0%);fill-opacity:1;" d="M 13.328125 12.523438 C 13.328125 12.5625 13.375 12.613281 13.429688 12.632812 C 13.480469 12.652344 13.503906 12.699219 13.484375 12.734375 C 13.464844 12.769531 13.480469 12.800781 13.511719 12.800781 C 13.613281 12.800781 13.589844 12.703125 13.453125 12.574219 C 13.386719 12.511719 13.328125 12.492188 13.328125 12.523438 Z M 13.328125 12.523438 "/>
<path style=" stroke:none;fill-rule:nonzero;fill:rgb(0%,0%,0%);fill-opacity:1;" d="M 13.703125 12.914062 C 13.703125 12.980469 13.839844 13.121094 13.902344 13.121094 C 13.992188 13.121094 13.949219 13.023438 13.824219 12.941406 C 13.757812 12.894531 13.703125 12.882812 13.703125 12.914062 Z M 13.703125 12.914062 "/>
<path style=" stroke:none;fill-rule:nonzero;fill:rgb(0%,0%,0%);fill-opacity:1;" d="M 14.011719 13.171875 C 14.011719 13.203125 14.082031 13.265625 14.167969 13.3125 C 14.253906 13.355469 14.320312 13.421875 14.320312 13.453125 C 14.320312 13.476562 14.351562 13.503906 14.390625 13.503906 C 14.484375 13.503906 14.410156 13.402344 14.199219 13.246094 C 14.09375 13.171875 14.011719 13.140625 14.011719 13.171875 Z M 14.011719 13.171875 "/>
<path style=" stroke:none;fill-rule:nonzero;fill:rgb(0%,0%,0%);fill-opacity:1;" d="M 3.65625 15.167969 C 3.65625 15.390625 3.683594 15.40625 3.851562 15.238281 L 3.980469 15.117188 L 3.855469 15.046875 C 3.671875 14.945312 3.65625 14.957031 3.65625 15.167969 Z M 3.65625 15.167969 "/>
<path style=" stroke:none;fill-rule:nonzero;fill:rgb(0%,0%,0%);fill-opacity:1;" d="M 8.5625 15.980469 C 8.5625 16.113281 8.554688 16.351562 8.554688 16.511719 C 8.539062 16.921875 8.539062 16.914062 8.730469 17.195312 C 9.050781 17.691406 9.332031 17.996094 9.765625 18.328125 C 10.230469 18.695312 11.097656 19.199219 11.65625 19.4375 C 12.046875 19.601562 11.949219 19.636719 11.507812 19.480469 C 11.347656 19.425781 11.203125 19.390625 11.183594 19.410156 C 11.128906 19.46875 12.183594 19.78125 12.617188 19.832031 C 12.984375 19.878906 13.113281 19.867188 13.421875 19.757812 L 13.796875 19.621094 L 13.222656 19.550781 C 12.382812 19.4375 11.730469 19.105469 11.105469 18.445312 C 10.769531 18.09375 10.558594 17.804688 10.386719 17.453125 C 10.15625 16.980469 9.921875 16.644531 10.027344 16.933594 C 10.042969 17 10.125 17.160156 10.199219 17.28125 C 10.433594 17.683594 10.433594 17.695312 10.207031 17.472656 C 9.945312 17.214844 9.621094 16.660156 9.425781 16.109375 C 9.292969 15.75 9.289062 15.742188 9.046875 15.742188 C 8.753906 15.742188 8.75 15.789062 8.972656 16.292969 C 9.207031 16.820312 9.207031 16.832031 9.019531 16.558594 C 8.929688 16.421875 8.796875 16.179688 8.734375 16.027344 C 8.667969 15.871094 8.597656 15.742188 8.585938 15.742188 C 8.570312 15.742188 8.5625 15.851562 8.5625 15.980469 Z M 8.5625 15.980469 "/>
<path style=" stroke:none;fill-rule:nonzero;fill:rgb(0%,0%,0%);fill-opacity:1;" d="M 9.949219 16.269531 C 9.976562 16.382812 10.027344 16.523438 10.054688 16.574219 C 10.105469 16.652344 10.105469 16.644531 10.082031 16.558594 C 10.0625 16.492188 10.042969 16.351562 10.042969 16.25 C 10.042969 16.148438 10.011719 16.0625 9.976562 16.0625 C 9.933594 16.0625 9.925781 16.140625 9.949219 16.269531 Z M 9.949219 16.269531 "/>
<path style=" stroke:none;fill-rule:nonzero;fill:rgb(0%,0%,0%);fill-opacity:1;" d="M 9.738281 16.257812 C 9.738281 16.351562 9.976562 16.839844 9.980469 16.761719 C 9.980469 16.734375 9.925781 16.59375 9.859375 16.441406 C 9.789062 16.289062 9.738281 16.203125 9.738281 16.257812 Z M 9.738281 16.257812 "/>
<path style=" stroke:none;fill-rule:nonzero;fill:rgb(0%,0%,0%);fill-opacity:1;" d="M 16.003906 16.691406 C 16.144531 16.941406 16.207031 17.152344 16.25 17.523438 C 16.363281 18.425781 16.410156 18.546875 16.589844 18.355469 C 16.894531 18.046875 16.691406 17.320312 16.125 16.703125 L 15.804688 16.351562 Z M 16.003906 16.691406 "/>
<path style=" stroke:none;fill-rule:nonzero;fill:rgb(0%,0%,0%);fill-opacity:1;" d="M 24.800781 24.75 C 24.800781 25.203125 24.359375 25.574219 23.882812 25.515625 C 23.734375 25.503906 23.632812 25.503906 23.664062 25.53125 C 23.691406 25.554688 23.886719 25.746094 24.105469 25.953125 C 24.472656 26.308594 24.503906 26.324219 24.570312 26.207031 C 24.609375 26.136719 24.761719 25.945312 24.910156 25.777344 C 25.183594 25.476562 25.191406 25.464844 25.074219 25.335938 C 25 25.246094 24.960938 25.105469 24.953125 24.890625 C 24.953125 24.683594 24.929688 24.574219 24.878906 24.574219 C 24.835938 24.574219 24.800781 24.652344 24.800781 24.75 Z M 24.800781 24.75 "/>
</g>
</svg>
