<?xml version="1.0" encoding="UTF-8"?>
<svg version="1.1" xmlns="http://www.w3.org/2000/svg" width="960" height="960">
<path d="M0 0 C8.2688207 7.41556528 13.27633782 18.52438208 14.27769852 29.59239197 C14.3650384 31.92981919 14.39466243 34.26056177 14.40087891 36.59960938 C14.41092453 37.47859894 14.42097015 38.3575885 14.43132019 39.26321411 C14.46198094 42.14161582 14.47913942 45.01992526 14.49609375 47.8984375 C14.51481918 49.90483383 14.53439361 51.91122239 14.55477905 53.91760254 C14.60596097 59.17821666 14.64566112 64.43885628 14.68292236 69.69958496 C14.72304965 75.07582839 14.77410209 80.45196705 14.82421875 85.828125 C14.92081288 96.36190542 15.00527025 106.89574519 15.08203125 117.4296875 C15.58378372 116.91905258 16.08553619 116.40841766 16.60249329 115.88230896 C21.37148488 111.03261431 26.1504896 106.19298448 30.94045734 101.36401272 C33.40172084 98.88202159 35.85918597 96.39651572 38.30786133 93.90209961 C41.13394522 91.02356861 43.97667631 88.1619749 46.8203125 85.30078125 C47.68223709 84.41821152 48.54416168 83.53564178 49.4322052 82.62632751 C60.06975472 71.98495216 73.20290569 63.49080708 88.70703125 63.1796875 C100.70289188 63.35740395 112.64268234 68.47953923 121.4609375 76.62109375 C130.76906581 87.00582485 134.87846542 98.98497872 134.46875 112.81640625 C133.89689223 118.15952182 132.39223299 122.60410163 130.08203125 127.4296875 C129.73140625 128.19667969 129.38078125 128.96367187 129.01953125 129.75390625 C123.76552667 140.20718619 115.00176317 147.65629536 105.8046875 154.56713867 C91.77171156 165.39701367 78.27667229 176.78155694 65.08203125 188.6171875 C64.48843827 189.14835662 63.89484529 189.67952575 63.28326464 190.2267909 C31.6383268 218.64017274 10.51065474 244.77591363 8.04799509 288.40924382 C7.44380765 300.70438162 7.70145546 312.9515101 8.26953125 325.2421875 C8.32428745 326.45989436 8.32428745 326.45989436 8.38014984 327.70220137 C9.34772693 348.72171507 11.23405439 369.57900087 14.08203125 390.4296875 C17.85966894 388.22836862 21.63689845 386.02635022 25.4140625 383.82421875 C26.46920044 383.20937622 27.52433838 382.59453369 28.6114502 381.96105957 C35.34405955 378.03532097 42.06375141 374.08857744 48.76953125 370.1171875 C49.76452637 369.5281665 50.75952148 368.93914551 51.78466797 368.33227539 C52.58146973 367.86039795 53.37827148 367.38852051 54.19921875 366.90234375 C58.46867404 364.37801915 62.74575743 361.86695947 67.02734375 359.36328125 C67.62708008 359.01255051 68.22681641 358.66181976 68.84472656 358.30046082 C69.75351563 357.769002 69.75351563 357.769002 70.68066406 357.22680664 C87.94519804 347.13087524 87.94519804 347.13087524 105.07641602 336.81079102 C110.09303953 333.7547057 115.12393895 330.8497828 120.3515625 328.16796875 C121.35775635 327.63204102 122.3639502 327.09611328 123.40063477 326.54394531 C125.27614622 325.55112856 127.17296103 324.59696314 129.09350586 323.69433594 C134.01011468 321.0398442 136.40267164 318.6015538 138.04079151 313.1550312 C138.3192191 312.14496922 138.3192191 312.14496922 138.60327148 311.11450195 C138.81107837 310.40601042 139.01888525 309.69751888 139.23298931 308.96755791 C139.86577586 306.79256837 140.47633998 304.61235968 141.08203125 302.4296875 C141.43095428 301.19744949 141.77987732 299.96521149 142.13937378 298.69563293 C143.16979553 295.00068227 144.17077162 291.29884728 145.1640625 287.59375 C145.53895905 286.20474232 145.91416679 284.81581859 146.28965759 283.42697144 C147.08337131 280.48957249 147.87538201 277.55172198 148.6661377 274.61352539 C149.91237456 269.98503696 151.16594307 265.3585529 152.42089844 260.73242188 C155.95669501 247.69490618 159.48970269 234.65674653 162.98226833 221.60757256 C164.58504463 215.62172998 166.20243887 209.63992531 167.82479858 203.65936279 C168.48881341 201.20058661 169.14749018 198.74036172 169.80044556 196.27862549 C174.44913522 178.76240506 178.67194316 163.37226793 192.08203125 150.4296875 C192.62988281 149.89601562 193.17773438 149.36234375 193.7421875 148.8125 C203.42085217 140.08879691 216.36644441 140.68566028 228.57275391 141.20751953 C239.62561841 142.18612497 248.61125527 149.49754609 255.89453125 157.3671875 C263.43687192 166.4459309 265.98800257 176.76411963 265.08203125 188.4296875 C263.21284063 201.0145385 259.96569105 213.30495638 256.78369141 225.60742188 C255.94630251 228.84618293 255.11712044 232.086967 254.2890625 235.328125 C253.75958339 237.3907454 253.22965269 239.45324994 252.69921875 241.515625 C252.45130585 242.48317719 252.20339294 243.45072937 251.94796753 244.44760132 C251.71747711 245.33678253 251.48698669 246.22596375 251.24951172 247.14208984 C251.04760223 247.92433929 250.84569275 248.70658875 250.63766479 249.51254272 C250.08203125 251.4296875 250.08203125 251.4296875 249.08203125 253.4296875 C259.71142729 247.43936589 270.33521291 241.43998369 280.9196167 235.3704834 C286.21360407 232.33483123 291.51541691 229.31306476 296.81884766 226.29394531 C299.8236001 224.5773293 302.81857932 222.84478219 305.8125 221.109375 C319.83974782 213.0620206 333.65810439 206.57563039 350.26953125 210.1796875 C351.54965122 210.56688428 352.82092713 210.98444053 354.08203125 211.4296875 C355.12230469 211.77966797 355.12230469 211.77966797 356.18359375 212.13671875 C363.19334581 214.84897264 368.54476294 219.44356254 374.08203125 224.4296875 C374.69433594 224.93886719 375.30664062 225.44804687 375.9375 225.97265625 C383.42600013 233.15314609 385.34930189 246.34833184 385.64453125 256.3046875 C385.10532321 269.69975032 379.32867716 278.66926581 369.75390625 287.6484375 C363.54126348 293.17242269 356.62479821 297.18888733 349.45703125 301.3046875 C348.06404645 302.1165836 346.67180766 302.92976083 345.28027344 303.74414062 C342.37628087 305.44222956 339.46915134 307.13474781 336.55957031 308.82324219 C329.83272529 312.73222888 323.1414541 316.70126631 316.45147705 320.6729126 C314.36569871 321.90972359 312.27755489 323.1424562 310.18896484 324.37451172 C308.90846011 325.13237119 307.62802042 325.89034058 306.34765625 326.6484375 C305.23165039 327.30779297 304.11564453 327.96714844 302.96582031 328.64648438 C300.55293593 330.13850161 298.33327831 331.71189878 296.08203125 333.4296875 C296.79676102 333.60428497 297.51149078 333.77888245 298.24787903 333.95877075 C305.03249108 335.61908427 311.81318218 337.29441587 318.59003162 338.98608589 C322.07297507 339.85496896 325.55709209 340.71828353 329.04467773 341.56835938 C332.41980236 342.39125075 335.79080796 343.22943633 339.15964317 344.07769394 C341.05063702 344.5497863 342.94543178 345.00657102 344.84028625 345.46292114 C359.53917861 349.19691472 372.75833347 356.66109087 380.83203125 369.94140625 C386.57812015 381.37971447 388.15267519 394.33085819 385.01953125 406.8046875 C380.6752134 418.90381573 371.07159527 428.2274828 359.98828125 434.203125 C343.05810859 441.34838604 324.45536048 437.29240989 307.515625 432.453125 C305.60105617 431.92753563 303.68582955 431.40433742 301.77000427 430.88334656 C297.74632242 429.7840153 293.72759051 428.66869481 289.71209717 427.53982544 C283.46701794 425.78504815 277.21038491 424.07425227 270.95166016 422.36889648 C253.84081496 417.69611515 236.75463548 412.94386716 219.72071266 407.99774933 C215.54221221 406.78939384 211.35637765 405.60659183 207.17166138 404.41998291 C204.04299398 403.51699776 200.93146966 402.56699914 197.81811523 401.61279297 C187.33713663 398.2030552 187.33713663 398.2030552 177.03515625 400.69140625 C175.36186677 401.90746157 173.71078414 403.15459839 172.08203125 404.4296875 C170.11786231 405.55980494 168.13502751 406.65797129 166.13671875 407.7265625 C156.25769397 413.2392025 146.39551202 418.76937493 136.6652832 424.54125977 C130.353678 428.28316681 124.00204115 431.95389479 117.64453125 435.6171875 C115.99565918 436.56766968 115.99565918 436.56766968 114.31347656 437.53735352 C108.59737094 440.8311911 102.87921741 444.12145361 97.16015625 447.41015625 C94.90483268 448.70813313 92.64962231 450.00630671 90.39453125 451.3046875 C88.77043335 452.23909668 88.77043335 452.23909668 87.11352539 453.19238281 C80.44420937 457.0386617 73.8088633 460.93381789 67.2668457 464.99365234 C63.29348939 467.4296875 63.29348939 467.4296875 61.08203125 467.4296875 C61.08203125 468.0896875 61.08203125 468.7496875 61.08203125 469.4296875 C61.78803467 469.69362305 62.49403809 469.95755859 63.22143555 470.22949219 C66.25062183 471.50042158 69.0028332 472.99731543 71.8515625 474.6328125 C72.97498047 475.27605469 74.09839844 475.91929687 75.25585938 476.58203125 C76.4688162 477.28113516 77.68170509 477.98035694 78.89453125 478.6796875 C80.15809228 479.40514101 81.42176573 480.13039876 82.68554688 480.85546875 C91.48134308 485.90749057 100.24582863 491.012659 108.99926758 496.13769531 C116.66446494 500.61976367 124.36729084 505.03374555 132.08203125 509.4296875 C142.97443016 515.63681915 153.82439033 521.91367603 164.64453125 528.24609375 C165.90935837 528.96230896 165.90935837 528.96230896 167.19973755 529.69299316 C170.08203125 531.4296875 170.08203125 531.4296875 172.67745972 533.39282227 C177.02658665 536.48064877 180.30121757 538.48736974 185.73809814 538.31126404 C189.9326115 537.42665366 193.94400545 536.27691916 198.02734375 534.98828125 C199.56299711 534.54308238 201.10008054 534.10279073 202.63845825 533.667099 C205.85164938 532.75110344 209.05630892 531.8111078 212.25695801 530.85223389 C216.9053608 529.46838223 221.57682497 528.18873894 226.26464844 526.94580078 C227.01612278 526.74648642 227.76759712 526.54717205 228.54184341 526.34181786 C230.06090033 525.93936776 231.5800311 525.53719634 233.09923553 525.1353035 C236.95546218 524.11040829 240.80578559 523.06387656 244.65625 522.01757812 C245.42338192 521.80930201 246.19051384 521.60102589 246.98089218 521.38643837 C248.53134983 520.96548693 250.08178649 520.54445813 251.63220215 520.12335205 C254.72634001 519.28332896 257.8209052 518.44488746 260.91552448 517.60663986 C262.46260377 517.18757102 264.00965102 516.76838393 265.55666637 516.34907913 C269.4042231 515.30625132 273.25210226 514.26464452 277.10066223 513.2255249 C284.29629387 511.2809444 291.48735364 509.32273099 298.66610336 507.31659031 C302.0188438 506.38084683 305.37391334 505.45362273 308.7292366 504.52718925 C310.31558844 504.0867194 311.90083156 503.64223247 313.48481369 503.19331551 C329.14003055 498.7586069 345.89638206 495.56916716 361.08203125 503.4296875 C364.00877583 505.19284786 366.54542634 507.14564498 369.08203125 509.4296875 C369.69820312 509.9659375 370.314375 510.5021875 370.94921875 511.0546875 C375.49050545 515.26463568 378.43926658 519.85454012 381.08203125 525.4296875 C381.88253906 526.96689453 381.88253906 526.96689453 382.69921875 528.53515625 C384.71636387 533.31753529 384.51979833 538.12667078 384.45703125 543.2421875 C384.46863281 544.17611328 384.48023438 545.11003906 384.4921875 546.07226562 C384.44025871 558.54383099 380.31380917 567.90299656 371.95703125 577.0546875 C357.82121671 590.41551221 336.92847234 593.09256744 318.76953125 597.6796875 C316.56437716 598.23928405 314.35929838 598.79917748 312.15429688 599.359375 C306.79773858 600.71957005 301.44026188 602.07609619 296.08203125 603.4296875 C301.06266541 606.794098 306.04750237 610.0860447 311.25 613.1015625 C312.37599609 613.75680908 313.50199219 614.41205566 314.66210938 615.0871582 C315.24935791 615.42752106 315.83660645 615.76788391 316.44165039 616.11856079 C318.97214952 617.5875735 321.49607879 619.06771379 324.02053833 620.54707336 C328.72410366 623.30334684 333.42976981 626.05559576 338.15087891 628.78173828 C378.27812463 651.96757703 378.27812463 651.96757703 384.19921875 669.79296875 C387.0724749 681.62925845 385.20155954 694.43665879 380.08203125 705.4296875 C373.10535279 716.22326619 361.6916352 724.02728651 349.33203125 727.1171875 C326.63033133 729.30004326 309.72548039 718.29542042 290.79071045 707.40991211 C288.26980915 705.9637369 285.74030486 704.53286568 283.2109375 703.1015625 C278.1545789 700.23396236 273.1150865 697.33795969 268.08203125 694.4296875 C267.18049316 693.90906738 266.27895508 693.38844727 265.35009766 692.85205078 C259.92394588 689.71721621 254.50149305 686.57607218 249.08203125 683.4296875 C249.5320752 685.02852783 249.5320752 685.02852783 249.99121094 686.65966797 C253.00556291 697.41326235 255.89635099 708.1943325 258.67675781 719.01074219 C259.34090971 721.58915605 260.01225282 724.16563734 260.68359375 726.7421875 C261.11372119 728.41134503 261.54342467 730.08061187 261.97265625 731.75 C262.17054749 732.50532013 262.36843872 733.26064026 262.57232666 734.03884888 C266.17157442 748.16456657 266.56391667 762.24630038 259.421875 775.3984375 C252.66713228 785.63886378 242.92351443 793.90822445 230.87890625 796.99609375 C221.31539333 798.47870539 212.06718054 798.08792685 203.08203125 794.4296875 C202.09203125 794.08164063 202.09203125 794.08164063 201.08203125 793.7265625 C190.9659358 789.56591034 182.5493631 779.10190887 178.08203125 769.4296875 C173.68224114 756.90255 170.43936453 743.96739108 167.00390625 731.15234375 C166.42756128 729.01216321 165.85091486 726.87206384 165.27398682 724.73204041 C163.7622425 719.12156756 162.25422386 713.51010041 160.74713135 707.89837646 C159.24226307 702.29695019 157.73435273 696.69634343 156.2265625 691.09570312 C155.9323214 690.0023081 155.63808029 688.90891308 155.33492279 687.78238487 C153.87654473 682.36366065 152.41654151 676.94538341 150.95324707 671.52798462 C150.38866134 669.43681274 149.82416612 667.34561642 149.25976562 665.25439453 C148.85098049 663.73982131 148.85098049 663.73982131 148.43393707 662.19465065 C146.93577773 656.63318453 145.45682201 651.06724982 144.00284958 645.4940691 C143.1867376 642.36945806 142.36122576 639.2473751 141.53430939 636.12560844 C141.16530548 634.72139288 140.80115275 633.31589184 140.44231415 631.90904427 C139.95973416 630.0175101 139.45937246 628.13053859 138.95800781 626.24389648 C138.68941956 625.20732407 138.4208313 624.17075165 138.144104 623.10276794 C136.45812668 618.85941173 133.55646783 616.45064667 129.59765625 614.34375 C128.58566162 613.79533447 128.58566162 613.79533447 127.55322266 613.23583984 C126.82022949 612.84605957 126.08723633 612.4562793 125.33203125 612.0546875 C118.04772928 608.09514587 110.85643233 604.00282054 103.70703125 599.8046875 C94.90477798 594.64540439 86.07053125 589.54535523 77.20703125 584.4921875 C68.03096039 579.25844612 58.86047092 574.01546986 49.70703125 568.7421875 C48.75973145 568.19763916 47.81243164 567.65309082 46.83642578 567.09204102 C39.74667656 563.00336058 32.69821942 558.84661873 25.65380859 554.68041992 C24.63542404 554.07837486 23.61703949 553.4763298 22.5677948 552.85604095 C20.07241936 551.38079416 17.57716821 549.90533759 15.08203125 548.4296875 C11.72078091 569.60335876 9.55570039 590.78157606 8.33203125 612.1796875 C8.28552398 612.97218918 8.2390167 613.76469087 8.19110012 614.58120775 C5.94181776 654.07751414 8.50358431 687.83902752 35.41543579 718.59991837 C45.86684791 730.29670211 57.04906807 741.13334278 68.70703125 751.6171875 C69.34640688 752.19288923 69.98578251 752.76859097 70.64453316 753.3617382 C82.14687541 763.69271375 93.81633283 773.83071546 105.93759155 783.4315033 C106.49732918 783.87677695 107.0570668 784.3220506 107.63376617 784.78081739 C110.23235966 786.84524394 112.84112574 788.88778382 115.48158646 790.89892197 C124.68505228 798.10892324 131.85686788 808.71609166 134.08203125 820.4296875 C135.15233951 835.02799034 132.10942685 846.71446364 123.08203125 858.4296875 C115.0909867 867.40451075 103.57507873 872.56382081 91.7265625 873.64453125 C76.73301695 874.24045913 65.23002206 867.73022594 54.08203125 858.4296875 C50.85544629 855.44517021 47.75963489 852.34211839 44.671875 849.21484375 C43.39250816 847.93123207 43.39250816 847.93123207 42.08729553 846.62168884 C39.3932629 843.91655839 36.7063103 841.20452048 34.01953125 838.4921875 C32.18210616 836.64471918 30.34421988 834.79770941 28.50585938 832.95117188 C24.02590618 828.44929643 19.55172772 823.9417453 15.08203125 819.4296875 C15.07838562 820.52834641 15.07473999 821.62700531 15.07098389 822.75895691 C15.03389493 833.15939562 14.97597156 843.55954204 14.89812851 853.9597578 C14.85877389 859.30545897 14.82652674 864.65099837 14.81103516 869.99682617 C14.79578912 875.16473314 14.76120387 880.33219499 14.71372223 885.49990273 C14.69898995 887.46241682 14.69099497 889.4249945 14.6901474 891.38756371 C14.67556593 908.23557822 12.88075221 923.25700953 0.95703125 936.1796875 C-3.768917 940.70050277 -8.81589243 943.21156049 -14.91796875 945.4296875 C-16.37396484 945.96529297 -16.37396484 945.96529297 -17.859375 946.51171875 C-31.10760332 950.48787923 -43.9204499 947.71804221 -55.91796875 941.4296875 C-58.87574135 939.33724672 -61.40961697 937.03767008 -63.91796875 934.4296875 C-64.80484375 933.5221875 -65.69171875 932.6146875 -66.60546875 931.6796875 C-73.38296614 922.15455603 -76.20613852 911.80280324 -76.23681641 900.25976562 C-76.24686203 899.38077606 -76.25690765 898.5017865 -76.26725769 897.59616089 C-76.29791844 894.71775918 -76.31507692 891.83944974 -76.33203125 888.9609375 C-76.35075668 886.95454117 -76.37033111 884.94815261 -76.39071655 882.94177246 C-76.44189847 877.68115834 -76.48159862 872.42051872 -76.51885986 867.15979004 C-76.55898715 861.78354661 -76.61003959 856.40740795 -76.66015625 851.03125 C-76.75675038 840.49746958 -76.84120775 829.96362981 -76.91796875 819.4296875 C-77.41972122 819.94032242 -77.92147369 820.45095734 -78.43843079 820.97706604 C-83.20742238 825.82676069 -87.9864271 830.66639052 -92.77639484 835.49536228 C-95.23765834 837.97735341 -97.69512347 840.46285928 -100.14379883 842.95727539 C-102.96988272 845.83580639 -105.81261381 848.6974001 -108.65625 851.55859375 C-109.51817459 852.44116348 -110.38009918 853.32373322 -111.2681427 854.23304749 C-121.90569222 864.87442284 -135.03884319 873.36856792 -150.54296875 873.6796875 C-162.53882938 873.50197105 -174.47861984 868.37983577 -183.296875 860.23828125 C-192.60500331 849.85355015 -196.71440292 837.87439628 -196.3046875 824.04296875 C-195.73282973 818.69985318 -194.22817049 814.25527337 -191.91796875 809.4296875 C-191.39203125 808.27919922 -191.39203125 808.27919922 -190.85546875 807.10546875 C-185.59778872 796.64487619 -176.81862449 789.18867375 -167.62475586 782.26049805 C-153.58043626 771.39416697 -140.06824383 759.97948112 -126.85546875 748.1171875 C-126.26144146 747.58514977 -125.66741418 747.05311204 -125.05538607 746.50495195 C-94.66413488 719.193414 -72.57859822 693.51329422 -70.24609375 651.3671875 C-69.59290286 638.42405315 -69.9020385 625.55059987 -70.60546875 612.6171875 C-70.66918553 611.41740178 -70.66918553 611.41740178 -70.73418951 610.19337797 C-71.85651226 589.48516213 -73.90252212 568.95052199 -76.91796875 548.4296875 C-77.39962588 548.71326551 -77.88128302 548.99684353 -78.37753582 549.28901482 C-80.59166487 550.59244639 -82.80596313 551.89559024 -85.02026367 553.19873047 C-86.15651814 553.86771614 -86.15651814 553.86771614 -87.31572723 554.55021667 C-93.60275094 558.24976313 -99.90906641 561.91414051 -106.23046875 565.5546875 C-107.32020996 566.1830249 -108.40995117 566.8113623 -109.53271484 567.45874023 C-118.28084172 572.4981647 -127.04847858 577.50297981 -135.81820679 582.50466919 C-141.92638146 585.98960071 -148.02816325 589.48485217 -154.10546875 593.0234375 C-155.09281006 593.59811768 -156.08015137 594.17279785 -157.09741211 594.76489258 C-159.05198795 595.91106946 -161.00082407 597.06709418 -162.94360352 598.2331543 C-168.17843832 601.35617179 -173.42969214 604.19299527 -178.9453125 606.79296875 C-180.70560791 607.67359985 -180.70560791 607.67359985 -182.50146484 608.57202148 C-184.72885154 609.68133821 -186.98783423 610.73054801 -189.27978516 611.69946289 C-194.45099487 614.35487218 -197.6882764 617.21313148 -199.77709961 622.66235352 C-201.41867992 627.77998976 -202.64819201 632.99666651 -203.88943481 638.2232666 C-205.05071362 643.05180318 -206.35582296 647.83936429 -207.66381836 652.62988281 C-207.91356194 653.54559177 -208.16330553 654.46130074 -208.4206171 655.40475845 C-208.94284904 657.31953153 -209.46516583 659.23428147 -209.98756218 661.1490097 C-211.34861215 666.15618834 -212.68893032 671.16889273 -214.02929688 676.18164062 C-214.30221778 677.20179638 -214.57513868 678.22195213 -214.85632992 679.2730217 C-215.41143315 681.34816813 -215.96644367 683.42333936 -216.5213623 685.49853516 C-217.90292582 690.66408244 -219.28631646 695.82913996 -220.66992188 700.99414062 C-220.94025049 702.00346209 -221.21057911 703.01278355 -221.4890995 704.05269051 C-223.58711736 711.88362337 -225.69296088 719.71243712 -227.80156517 727.54052544 C-229.12292785 732.45173899 -230.4312539 737.36600987 -231.72038555 742.28578091 C-232.25659434 744.32708693 -232.79826137 746.36685048 -233.34230042 748.40608215 C-233.96707912 750.75061483 -234.58274726 753.09761005 -235.18589783 755.44779968 C-238.5069151 767.7839831 -243.8380465 777.46186306 -252.91796875 786.4296875 C-253.49417969 787.0278125 -254.07039062 787.6259375 -254.6640625 788.2421875 C-259.34455599 792.73186951 -264.77671179 794.59577463 -270.91796875 796.4296875 C-271.54058594 796.62433594 -272.16320312 796.81898438 -272.8046875 797.01953125 C-285.91411919 799.56387566 -297.485975 796.64230882 -308.375 789.31640625 C-317.53915918 782.51719137 -322.88300632 774.38102046 -325.91796875 763.4296875 C-326.14484375 762.6253125 -326.37171875 761.8209375 -326.60546875 760.9921875 C-328.63906259 744.31671799 -322.75394162 727.23631677 -318.61962891 711.25195312 C-317.78224001 708.01319207 -316.95305794 704.772408 -316.125 701.53125 C-315.59552089 699.4686296 -315.06559019 697.40612506 -314.53515625 695.34375 C-314.28724335 694.37619781 -314.03933044 693.40864563 -313.78390503 692.41177368 C-313.55341461 691.52259247 -313.32292419 690.63341125 -313.08544922 689.71728516 C-312.88353973 688.93503571 -312.68163025 688.15278625 -312.47360229 687.34683228 C-311.91796875 685.4296875 -311.91796875 685.4296875 -310.91796875 683.4296875 C-321.54736479 689.42000911 -332.17115041 695.41939131 -342.7555542 701.4888916 C-348.04954157 704.52454377 -353.35135441 707.54631024 -358.65478516 710.56542969 C-361.6595376 712.2820457 -364.65451682 714.01459281 -367.6484375 715.75 C-381.67568532 723.7973544 -395.49404189 730.28374461 -412.10546875 726.6796875 C-413.38558872 726.29249072 -414.65686463 725.87493447 -415.91796875 725.4296875 C-416.61148438 725.19636719 -417.305 724.96304688 -418.01953125 724.72265625 C-425.02928331 722.01040236 -430.38070044 717.41581246 -435.91796875 712.4296875 C-436.83642578 711.66591797 -436.83642578 711.66591797 -437.7734375 710.88671875 C-445.26193763 703.70622891 -447.18523939 690.51104316 -447.48046875 680.5546875 C-446.94126071 667.15962468 -441.16461466 658.19010919 -431.58984375 649.2109375 C-425.37720098 643.68695231 -418.46073571 639.67048767 -411.29296875 635.5546875 C-409.89998395 634.7427914 -408.50774516 633.92961417 -407.11621094 633.11523438 C-404.21221837 631.41714544 -401.30508884 629.72462719 -398.39550781 628.03613281 C-391.66866279 624.12714612 -384.9773916 620.15810869 -378.28741455 616.1864624 C-376.20163621 614.94965141 -374.11349239 613.7169188 -372.02490234 612.48486328 C-370.74439761 611.72700381 -369.46395792 610.96903442 -368.18359375 610.2109375 C-367.06758789 609.55158203 -365.95158203 608.89222656 -364.80175781 608.21289062 C-362.38887343 606.72087339 -360.16921581 605.14747622 -357.91796875 603.4296875 C-358.90490219 603.18991432 -358.90490219 603.18991432 -359.91177368 602.94529724 C-366.82874505 601.26130342 -373.73957131 599.5536229 -380.64746094 597.83276367 C-383.21763838 597.19373817 -385.78963351 596.5643646 -388.36328125 595.93920898 C-428.76917612 586.11223184 -428.76917612 586.11223184 -441.6640625 567.05859375 C-445.32195953 559.38954483 -446.47549826 551.93132466 -446.41796875 543.4921875 C-446.41297363 542.52651855 -446.40797852 541.56084961 -446.40283203 540.56591797 C-446.22366433 533.25216864 -445.09802348 527.56776786 -440.91796875 521.4296875 C-440.44875 520.71039062 -439.97953125 519.99109375 -439.49609375 519.25 C-438.06243295 517.20741876 -436.54682897 515.31932583 -434.91796875 513.4296875 C-434.39460938 512.81222656 -433.87125 512.19476562 -433.33203125 511.55859375 C-425.86888294 503.41219946 -415.40973638 499.36747637 -404.48939514 498.82917786 C-388.94638908 498.55345539 -374.54484351 502.89494145 -359.74318695 507.10279083 C-355.90025077 508.18872393 -352.04868342 509.24312841 -348.19775391 510.30029297 C-341.74165767 512.07602272 -335.29021601 513.86778481 -328.84130859 515.66943359 C-314.85061134 519.57480763 -300.82741403 523.36067289 -286.80618382 527.15462208 C-281.41801819 528.61298291 -276.03191075 530.07876051 -270.64672852 531.5480957 C-268.51378335 532.12937113 -266.38079739 532.71049659 -264.2477932 533.2915554 C-262.91474495 533.655038 -261.58184608 534.01906895 -260.24910927 534.38369179 C-258.42804352 534.88182473 -256.60636995 535.377734 -254.78466797 535.87353516 C-253.76637909 536.15153961 -252.74809021 536.42954407 -251.69894409 536.7159729 C-246.4974308 538.30591049 -246.4974308 538.30591049 -241.3762207 537.40429688 C-240.02983521 536.59702148 -240.02983521 536.59702148 -238.65625 535.7734375 C-237.63337891 535.17080078 -236.61050781 534.56816406 -235.55664062 533.94726562 C-233.91018555 532.94856445 -233.91018555 532.94856445 -232.23046875 531.9296875 C-231.06927267 531.23999646 -229.90714572 530.55187052 -228.74414062 529.86523438 C-226.32788531 528.43703563 -223.91578221 527.00217351 -221.50634766 525.5625 C-216.01367793 522.28808426 -210.46314373 519.11405378 -204.91796875 515.9296875 C-202.75102799 514.68016271 -200.58436215 513.43016103 -198.41796875 512.1796875 C-185.41796875 504.6796875 -185.41796875 504.6796875 -182.1652832 502.80322266 C-180.00747072 501.55827468 -177.84975522 500.3131586 -175.69213867 499.06787109 C-170.14080283 495.86416099 -164.58760334 492.6637512 -159.03125 489.46875 C-156.76422104 488.16423953 -154.4972923 486.85955488 -152.23046875 485.5546875 C-151.14701172 484.93134521 -150.06355469 484.30800293 -148.94726562 483.66577148 C-142.27871807 479.81983787 -135.64408889 475.92511532 -129.1027832 471.86572266 C-125.12942689 469.4296875 -125.12942689 469.4296875 -122.91796875 469.4296875 C-122.91796875 468.7696875 -122.91796875 468.1096875 -122.91796875 467.4296875 C-123.62397217 467.16575195 -124.32997559 466.90181641 -125.05737305 466.62988281 C-128.08655933 465.35895342 -130.8387707 463.86205957 -133.6875 462.2265625 C-134.81091797 461.58332031 -135.93433594 460.94007813 -137.09179688 460.27734375 C-138.3047537 459.57823984 -139.51764259 458.87901806 -140.73046875 458.1796875 C-141.99402978 457.45423399 -143.25770323 456.72897624 -144.52148438 456.00390625 C-153.31728058 450.95188443 -162.08176613 445.846716 -170.83520508 440.72167969 C-178.50040244 436.23961133 -186.20322834 431.82562945 -193.91796875 427.4296875 C-204.81036766 421.22255585 -215.66032783 414.94569897 -226.48046875 408.61328125 C-227.32287109 408.13557785 -228.16527344 407.65787445 -229.03320312 407.16569519 C-231.91796875 405.4296875 -231.91796875 405.4296875 -234.53564453 403.47273254 C-238.79594462 400.47430562 -242.09793707 398.39159526 -247.41088867 398.50279236 C-251.4504866 399.34058716 -255.30194187 400.45190883 -259.23046875 401.6953125 C-260.7454977 402.13487331 -262.261996 402.56939548 -263.77978516 402.99932861 C-267.0760095 403.93889014 -270.36367235 404.90306562 -273.64794922 405.88354492 C-279.10116799 407.49946712 -284.58421945 408.99213089 -290.078125 410.46289062 C-291.50775322 410.84586681 -291.50775322 410.84586681 -292.96626282 411.2365799 C-294.92047908 411.75982176 -296.87474898 412.28286331 -298.82907104 412.80570984 C-303.81310485 414.14400048 -308.79128464 415.50364918 -313.76953125 416.86328125 C-315.26482613 417.27141682 -315.26482613 417.27141682 -316.79032898 417.68779755 C-318.81406048 418.24020084 -320.83776748 418.7926939 -322.8614502 419.34527588 C-330.99929892 421.56686081 -339.13834723 423.78404658 -347.27740479 426.00119781 C-350.06392588 426.76070412 -352.85010856 427.52144054 -355.63623047 428.28240967 C-359.88897238 429.44316841 -364.14315456 430.59847586 -368.3988018 431.74853706 C-370.12012923 432.21396193 -371.84111914 432.68063638 -373.56181526 433.14838982 C-376.15264514 433.85140708 -378.74512768 434.54798168 -381.33813477 435.24291992 C-382.11402199 435.45444324 -382.88990921 435.66596657 -383.68930817 435.88389969 C-389.43625765 437.41307625 -394.89045042 438.19410461 -400.85546875 437.9921875 C-401.73098389 437.97559082 -402.60649902 437.95899414 -403.50854492 437.94189453 C-414.26867401 437.55721269 -422.87110998 434.67534388 -430.91796875 427.4296875 C-431.84222656 426.6253125 -431.84222656 426.6253125 -432.78515625 425.8046875 C-437.32644295 421.59473932 -440.27520408 417.00483488 -442.91796875 411.4296875 C-443.45164062 410.40488281 -443.9853125 409.38007813 -444.53515625 408.32421875 C-446.55230137 403.54183971 -446.35573583 398.73270422 -446.29296875 393.6171875 C-446.31037109 392.21629883 -446.31037109 392.21629883 -446.328125 390.78710938 C-446.27602823 378.27520098 -442.14148528 368.85521471 -433.66796875 359.7421875 C-419.67833599 346.57368536 -398.47391398 343.62678535 -380.48046875 339.1171875 C-378.28437453 338.56236597 -376.08840992 338.0070311 -373.89257812 337.45117188 C-368.56918629 336.10476298 -363.2442368 334.7646703 -357.91796875 333.4296875 C-362.89860291 330.065277 -367.88343987 326.7733303 -373.0859375 323.7578125 C-374.21193359 323.10256592 -375.33792969 322.44731934 -376.49804688 321.7722168 C-377.08529541 321.43185394 -377.67254395 321.09149109 -378.27758789 320.74081421 C-380.80808702 319.2718015 -383.33201629 317.79166121 -385.85647583 316.31230164 C-390.56004116 313.55602816 -395.26570731 310.80377924 -399.98681641 308.07763672 C-440.11406213 284.89179797 -440.11406213 284.89179797 -446.03515625 267.06640625 C-448.9084124 255.23011655 -447.03749704 242.42271621 -441.91796875 231.4296875 C-434.94129029 220.63610881 -423.5275727 212.83208849 -411.16796875 209.7421875 C-388.46626883 207.55933174 -371.56141789 218.56395458 -352.62664795 229.44946289 C-350.10574665 230.8956381 -347.57624236 232.32650932 -345.046875 233.7578125 C-339.9905164 236.62541264 -334.951024 239.52141531 -329.91796875 242.4296875 C-329.01643066 242.95030762 -328.11489258 243.47092773 -327.18603516 244.00732422 C-321.75988338 247.14215879 -316.33743055 250.28330282 -310.91796875 253.4296875 C-311.21799805 252.36379395 -311.51802734 251.29790039 -311.82714844 250.19970703 C-314.84150041 239.44611265 -317.73228849 228.6650425 -320.51269531 217.84863281 C-321.17684721 215.27021895 -321.84819032 212.69373766 -322.51953125 210.1171875 C-322.94965869 208.44802997 -323.37936217 206.77876313 -323.80859375 205.109375 C-324.1054306 203.97639481 -324.1054306 203.97639481 -324.40826416 202.82052612 C-328.00751192 188.69480843 -328.39985417 174.61307462 -321.2578125 161.4609375 C-314.50306978 151.22051122 -304.75945193 142.95115055 -292.71484375 139.86328125 C-283.15133083 138.38066961 -273.90311804 138.77144815 -264.91796875 142.4296875 C-263.92796875 142.77773438 -263.92796875 142.77773438 -262.91796875 143.1328125 C-252.8018733 147.29346466 -244.3853006 157.75746613 -239.91796875 167.4296875 C-235.51817864 179.956825 -232.27530203 192.89198392 -228.83984375 205.70703125 C-228.26349878 207.84721179 -227.68685236 209.98731116 -227.10992432 212.12733459 C-225.59818 217.73780744 -224.09016136 223.34927459 -222.58306885 228.96099854 C-221.07820057 234.56242481 -219.57029023 240.16303157 -218.0625 245.76367188 C-217.7682589 246.8570669 -217.47401779 247.95046192 -217.17086029 249.07699013 C-215.71248223 254.49571435 -214.25247901 259.91399159 -212.78918457 265.33139038 C-212.22459884 267.42256226 -211.66010362 269.51375858 -211.09570312 271.60498047 C-210.8231797 272.61469595 -210.55065628 273.62441143 -210.26987457 274.66472435 C-208.77171523 280.22619047 -207.29275951 285.79212518 -205.83878708 291.3653059 C-205.0226751 294.48991694 -204.19716326 297.6119999 -203.37024689 300.73376656 C-203.00124298 302.13798212 -202.63709025 303.54348316 -202.27825165 304.95033073 C-201.79567166 306.8418649 -201.29530996 308.72883641 -200.79394531 310.61547852 C-200.52535706 311.65205093 -200.2567688 312.68862335 -199.9800415 313.75660706 C-198.29406418 317.99996327 -195.39240533 320.40872833 -191.43359375 322.515625 C-190.75893066 322.88123535 -190.08426758 323.2468457 -189.38916016 323.62353516 C-188.65616699 324.01331543 -187.92317383 324.4030957 -187.16796875 324.8046875 C-179.88366678 328.76422913 -172.69236983 332.85655446 -165.54296875 337.0546875 C-156.74071548 342.21397061 -147.90646875 347.31401977 -139.04296875 352.3671875 C-129.86689789 357.60092888 -120.69640842 362.84390514 -111.54296875 368.1171875 C-110.59566895 368.66173584 -109.64836914 369.20628418 -108.67236328 369.76733398 C-101.58261406 373.85601442 -94.53415692 378.01275627 -87.48974609 382.17895508 C-86.47136154 382.78100014 -85.45297699 383.3830452 -84.4037323 384.00333405 C-81.90835686 385.47858084 -79.41310571 386.95403741 -76.91796875 388.4296875 C-73.55671841 367.25601624 -71.39163789 346.07779894 -70.16796875 324.6796875 C-70.12146148 323.88718582 -70.0749542 323.09468413 -70.02703762 322.27816725 C-67.77775526 282.78186086 -70.33952181 249.02034748 -97.25137329 218.25945663 C-107.70278541 206.56267289 -118.88500557 195.72603222 -130.54296875 185.2421875 C-131.18234438 184.66648577 -131.82172001 184.09078403 -132.48047066 183.4976368 C-143.98281291 173.16666125 -155.65227033 163.02865954 -167.77352905 153.4278717 C-168.33326668 152.98259805 -168.8930043 152.5373244 -169.46970367 152.07855761 C-172.06829716 150.01413106 -174.67706324 147.97159118 -177.31752396 145.96045303 C-186.52098978 138.75045176 -193.69280538 128.14328334 -195.91796875 116.4296875 C-196.98827701 101.83138466 -193.94536435 90.14491136 -184.91796875 78.4296875 C-176.9269242 69.45486425 -165.41101623 64.29555419 -153.5625 63.21484375 C-138.56895445 62.61891587 -127.06595956 69.12914906 -115.91796875 78.4296875 C-112.69138379 81.41420479 -109.59557239 84.51725661 -106.5078125 87.64453125 C-105.65490128 88.50027237 -104.80199005 89.35601349 -103.92323303 90.23768616 C-101.2292004 92.94281661 -98.5422478 95.65485452 -95.85546875 98.3671875 C-94.01804366 100.21465582 -92.18015738 102.06166559 -90.34179688 103.90820312 C-85.86184368 108.41007857 -81.38766522 112.9176297 -76.91796875 117.4296875 C-76.91432312 116.33102859 -76.91067749 115.23236969 -76.90692139 114.10041809 C-76.86983243 103.69997938 -76.81190906 93.29983296 -76.73406601 82.8996172 C-76.69471139 77.55391603 -76.66246424 72.20837663 -76.64697266 66.86254883 C-76.63172662 61.69464186 -76.59714137 56.52718001 -76.54965973 51.35947227 C-76.53492745 49.39695818 -76.52693247 47.4343805 -76.5260849 45.47181129 C-76.51150343 28.62379678 -74.71668971 13.60236547 -62.79296875 0.6796875 C-58.05461997 -3.85299005 -53.02026696 -6.31408056 -46.91796875 -8.5703125 C-45.84546875 -8.9828125 -44.77296875 -9.3953125 -43.66796875 -9.8203125 C-28.17308982 -14.04618857 -12.33112043 -10.09594789 0 0 Z " fill="#FFFFFF" transform="translate(510.91796875,11.5703125)"/>
</svg>
